<svg xmlns="http://www.w3.org/2000/svg" width="14" height="14" viewBox="0 0 14 14">
    <g data-name="그룹 31069">
        <path d="M7 0a7 7 0 1 0 7 7 7.021 7.021 0 0 0-7-7zm2.59 8.61a.693.693 0 1 1-.98.98L7 7.98 5.39 9.59a.693.693 0 1 1-.98-.98L6.02 7 4.41 5.39a.693.693 0 0 1 .98-.98L7 6.02l1.61-1.61a.693.693 0 1 1 .98.98L7.98 7z"/>
        <path data-name="106780bf1ed9964c2ffe0eda53fe07ea" d="M13.474 7.264a.837.837 0 0 0-1.188 0l-1.917 1.925-1.916-1.925a.84.84 0 0 0-1.189 1.189l1.925 1.917-1.925 1.916a.84.84 0 1 0 1.188 1.188l1.917-1.925 1.917 1.925a.84.84 0 1 0 1.188-1.188l-1.925-1.917 1.925-1.917a.837.837 0 0 0 0-1.188z" transform="translate(-3.369 -3.369)" style="fill:#fff"/>
    </g>
</svg>
