<svg xmlns="http://www.w3.org/2000/svg" width="38.502" height="37.567" viewBox="0 0 38.502 37.567">
    <defs>
        <filter id="of8doxle5a" x="0" y="0" width="38.502" height="37.567" filterUnits="userSpaceOnUse">
            <feOffset dy="3"/>
            <feGaussianBlur stdDeviation="3" result="blur"/>
            <feFlood flood-opacity=".161"/>
            <feComposite operator="in" in2="blur"/>
            <feComposite in="SourceGraphic"/>
        </filter>
    </defs>
    <g style="filter:url(#of8doxle5a)">
        <path data-name="6c8a01acce8d142c65301ac8f47dc0e1" d="M10.214.441 12.53 5.1a.8.8 0 0 0 .6.437l5.185.749a.8.8 0 0 1 .528.307.769.769 0 0 1-.085 1.031L15 11.259a.76.76 0 0 0-.226.7l.9 5.128a.786.786 0 0 1-.652.892.862.862 0 0 1-.516-.08l-4.618-2.421a.779.779 0 0 0-.742 0l-4.652 2.434a.811.811 0 0 1-1.077-.33.792.792 0 0 1-.081-.5l.9-5.128a.787.787 0 0 0-.226-.7L.232 7.621a.786.786 0 0 1 0-1.115.91.91 0 0 1 .452-.223l5.186-.749a.813.813 0 0 0 .6-.437L8.784.441a.784.784 0 0 1 .458-.4.8.8 0 0 1 .61.044.818.818 0 0 1 .362.356z" transform="translate(9.75 6.75)" style="fill:none;stroke:#fff;stroke-linecap:round;stroke-linejoin:round;stroke-width:1.5px;fill-rule:evenodd"/>
    </g>
</svg>
