<svg xmlns="http://www.w3.org/2000/svg" width="18" height="22" viewBox="0 0 18 22">
  <g id="그룹_31585" data-name="그룹 31585" transform="translate(-219 -217)">
    <g id="그룹_31578" data-name="그룹 31578" transform="translate(219 217)">
      <path id="패스_46391" data-name="패스 46391" d="M16.271,22.028H16.26a1.889,1.889,0,0,1-.829-.207l-.016-.008-6.37-3.471a.067.067,0,0,0-.059,0L2.659,21.811l-.014.008a1.782,1.782,0,0,1-2.378-.712l-.01-.018a1.861,1.861,0,0,1-.211-.828s0-.008,0-.012V4.868A4.435,4.435,0,0,1,1.7,1.132,6.4,6.4,0,0,1,5.661.028h6.771c3.568,0,5.615,1.693,5.615,4.644V20.248a1.777,1.777,0,0,1-1.775,1.78Zm-7.254-5.16Z" transform="translate(-0.046 -0.028)" fill="#8293a2"/>
    </g>
    <path id="패스_46402" data-name="패스 46402" d="M14.02,6.33,15.564,9.5l3.456.491-2.5,2.473.587,3.472L14.02,14.291l-3.087,1.643.587-3.472L9.02,9.989,12.476,9.5Z" transform="translate(213.98 214.851)" fill="#fff"/>
  </g>
</svg>
