<svg xmlns="http://www.w3.org/2000/svg" width="39.155" height="37.979" viewBox="0 0 39.155 37.979">
    <defs>
        <filter id="m4wymycpga" x="0" y="0" width="39.155" height="37.979" filterUnits="userSpaceOnUse">
            <feOffset dy="3"/>
            <feGaussianBlur stdDeviation="3" result="blur"/>
            <feFlood flood-opacity=".161"/>
            <feComposite operator="in" in2="blur"/>
            <feComposite in="SourceGraphic"/>
        </filter>
    </defs>
    <g data-name="그룹 31068">
        <g data-name="그룹 31067">
            <g style="filter:url(#m4wymycpga)">
                <path data-name="6c8a01acce8d142c65301ac8f47dc0e1" d="m10.565.451 2.4 4.762a.822.822 0 0 0 .618.447l5.364.766a.828.828 0 0 1 .546.314.781.781 0 0 1-.093 1.06l-3.885 3.722a.772.772 0 0 0-.234.712l.936 5.245a.805.805 0 0 1-.674.912.9.9 0 0 1-.534-.082l-4.783-2.472a.814.814 0 0 0-.768 0l-4.811 2.49a.844.844 0 0 1-1.114-.338.8.8 0 0 1-.084-.511l.936-5.245a.8.8 0 0 0-.234-.712L.24 7.8a.8.8 0 0 1 0-1.14.945.945 0 0 1 .468-.228l5.364-.772a.841.841 0 0 0 .618-.447L9.086.451a.808.808 0 0 1 .473-.409.841.841 0 0 1 1.006.409z" transform="translate(9.75 6.755)" style="stroke:#fd6660;stroke-linecap:round;stroke-linejoin:round;stroke-width:1.5px;fill-rule:evenodd;fill:none"/>
            </g>
            <path data-name="사각형 6518" transform="translate(8.569 5.667)" style="fill:none" d="M0 0h22v21H0z"/>
        </g>
        <path data-name="1e41a590ad35e3de674afbc51e79f8ae" d="M14.557 4.647 16.952 9.5a.929.929 0 0 0 .7.508l5.348.777a.929.929 0 0 1 .514 1.584l-.095.092-3.78 3.684a.93.93 0 0 0-.267.822l.915 5.332a.929.929 0 0 1-1.347.979l-4.785-2.518a.93.93 0 0 0-.864 0L8.5 23.278a.929.929 0 0 1-1.346-.978l.915-5.332a.928.928 0 0 0-.267-.822l-3.876-3.777a.929.929 0 0 1 .514-1.584l5.354-.778a.929.929 0 0 0 .7-.508l2.395-4.852a.931.931 0 0 1 1.668 0z" transform="translate(6.071 2.409)" style="fill:#fd6660"/>
    </g>
</svg>
