<svg xmlns="http://www.w3.org/2000/svg" width="18" height="22" viewBox="0 0 18 22">
  <g id="그룹_31534" data-name="그룹 31534" transform="translate(-1209.75 -1368.25)">
    <g id="그룹_31533" data-name="그룹 31533" transform="translate(1209.75 1368.25)">
      <path id="패스_46391" data-name="패스 46391" d="M16.271,22.028H16.26a1.889,1.889,0,0,1-.829-.207l-.016-.008-6.37-3.471a.067.067,0,0,0-.059,0L2.659,21.811l-.014.008a1.782,1.782,0,0,1-2.378-.712l-.01-.018a1.861,1.861,0,0,1-.211-.828s0-.008,0-.012V4.868A4.435,4.435,0,0,1,1.7,1.132,6.4,6.4,0,0,1,5.661.028h6.771c3.568,0,5.615,1.693,5.615,4.644V20.248a1.777,1.777,0,0,1-1.775,1.78Zm-.17-1.51a.428.428,0,0,0,.176.044.319.319,0,0,0,.219-.093.31.31,0,0,0,.091-.22V4.672A2.749,2.749,0,0,0,15.5,2.258a5.313,5.313,0,0,0-3.066-.763H5.661a5.027,5.027,0,0,0-3.081.8,3.008,3.008,0,0,0-1.075,2.57V20.241a.381.381,0,0,0,.038.156.328.328,0,0,0,.28.157.322.322,0,0,0,.145-.035l6.322-3.466a1.517,1.517,0,0,1,1.448,0Z" transform="translate(-0.046 -0.028)" fill="#fff"/>
    </g>
    <path id="패스_46395" data-name="패스 46395" d="M13.454,6.33l1.369,2.782,3.065.431-2.217,2.172.521,3.05-2.738-1.443-2.738,1.443.521-3.05L9.02,9.544l3.065-.431Z" transform="translate(1205.296 1366.104)" fill="#fff"/>
  </g>
</svg>
