<?xml version="1.0" encoding="utf-8"?>
<!-- Generator: Adobe Illustrator 27.1.1, SVG Export Plug-In . SVG Version: 6.00 Build 0)  -->
<svg version="1.1" id="레이어_1" xmlns="http://www.w3.org/2000/svg" xmlns:xlink="http://www.w3.org/1999/xlink" x="0px"
	 y="0px" viewBox="0 0 39.2 37.4" style="enable-background:new 0 0 39.2 37.4;" xml:space="preserve">
<style type="text/css">
	.st0{fill:none;stroke:#FFFFFF;stroke-width:1.5;stroke-miterlimit:10;}
</style>
<g>
	<g>
		<g>
			<path class="st0" d="M20.9,3.1l4.3,8.5c0.2,0.4,0.6,0.7,1.1,0.8l9.5,1.4c0.4,0.1,0.7,0.3,1,0.6c0.4,0.6,0.4,1.4-0.2,1.9l-6.9,6.6
				c-0.3,0.3-0.5,0.8-0.4,1.3l1.7,9.2c0.1,0.8-0.4,1.5-1.2,1.6c-0.3,0-0.7,0-1-0.1l-8.5-4.4c-0.4-0.2-0.9-0.2-1.4,0l-8.6,4.4
				c-0.7,0.4-1.6,0.1-2-0.6c-0.1-0.3-0.2-0.6-0.1-0.9l1.7-9.3c0.1-0.5-0.1-0.9-0.4-1.3l-7-6.6c-0.6-0.6-0.6-1.5,0-2l0,0
				C2.7,14,3,13.8,3.3,13.8l9.5-1.4c0.5-0.1,0.9-0.4,1.1-0.8l4.3-8.5c0.2-0.3,0.5-0.6,0.8-0.7C19.8,2.2,20.6,2.5,20.9,3.1z"/>
		</g>
	</g>
</g>
</svg>
