<svg xmlns="http://www.w3.org/2000/svg" width="14" height="18" viewBox="0 0 14 18">
  <g id="그룹_31583" data-name="그룹 31583" transform="translate(-281.2 -613.961)">
    <path id="b06ea94bd86847094b2908f65f2f2282" d="M52.251,40.148V38.759a3.414,3.414,0,1,1,6.817,0v1.388h2.356a.43.43,0,0,1,.425.4l.81,12.146a.433.433,0,0,1-.4.462H49.085a.429.429,0,0,1-.425-.433V52.7l.81-12.146a.43.43,0,0,1,.425-.405Zm1.279,0h4.261V38.759a2.136,2.136,0,1,0-4.261,0ZM50,51.861H61.322L60.629,41.45H50.691Z" transform="translate(232.54 578.801)" fill="#fff"/>
    <path id="패스_46406" data-name="패스 46406" d="M19.507,17.206a.21.21,0,0,1-.209.209H17.415V19.3a.209.209,0,1,1-.418,0V17.415H15.114a.209.209,0,0,1,0-.418H17V15.114a.209.209,0,0,1,.418,0V17H19.3A.21.21,0,0,1,19.507,17.206Z" transform="translate(270.995 608.173)" fill="#fff" stroke="#fff" stroke-width="0.7"/>
  </g>
</svg>
