<svg xmlns="http://www.w3.org/2000/svg" width="14" height="14" viewBox="0 0 14 14">
    <defs>
        <clipPath id="ckww4ti4ta">
            <path data-name="사각형 7318" style="fill:none" d="M0 0h14v14H0z"/>
        </clipPath>
    </defs>
    <g data-name="그룹 31561" style="clip-path:url(#ckww4ti4ta)">
        <path data-name="패스 46399" d="m14 7.706 1.264 3.039 3.28.263a1.069 1.069 0 0 1 .61 1.877l-2.5 2.142.763 3.2a1.068 1.068 0 0 1-1.6 1.16l-2.808-1.716-2.809 1.717a1.069 1.069 0 0 1-1.6-1.16l.764-3.2-2.5-2.142a1.068 1.068 0 0 1 .609-1.877l3.281-.263 1.264-3.039A1.069 1.069 0 0 1 14 7.706z" transform="translate(-5.84 -6.467)" style="fill:#ffca1d"/>
    </g>
</svg>
