<svg xmlns="http://www.w3.org/2000/svg" width="22" height="22" viewBox="0 0 22 22">
  <g id="vuesax_linear_group" data-name="vuesax/linear/group" transform="translate(-108 -700)">
    <g id="group" transform="translate(108 700)">
      <path id="Vector" d="M6.39-.75h5.22A3.843,3.843,0,0,1,14.048.262l3.69,3.69A3.843,3.843,0,0,1,18.75,6.39v5.22a3.843,3.843,0,0,1-1.012,2.438l-3.69,3.69A3.843,3.843,0,0,1,11.61,18.75H6.39a3.843,3.843,0,0,1-2.438-1.012l-3.69-3.69A3.843,3.843,0,0,1-.75,11.61V6.39A3.843,3.843,0,0,1,.262,3.952L3.952.262A3.843,3.843,0,0,1,6.39-.75Zm5.22,18a2.4,2.4,0,0,0,1.378-.572l3.69-3.69a2.4,2.4,0,0,0,.572-1.378V6.39a2.4,2.4,0,0,0-.572-1.378l-3.69-3.69A2.4,2.4,0,0,0,11.61.75H6.39a2.4,2.4,0,0,0-1.378.572l-3.69,3.69A2.4,2.4,0,0,0,.75,6.39v5.22a2.4,2.4,0,0,0,.572,1.378l3.69,3.69a2.4,2.4,0,0,0,1.378.572Z" transform="translate(2 2)" fill="#fff"/>
      <path id="Vector-2" data-name="Vector" d="M0,7.75a.748.748,0,0,1-.53-.22.75.75,0,0,1,0-1.061l7-7a.75.75,0,0,1,1.061,0A.75.75,0,0,1,7.53.53l-7,7A.748.748,0,0,1,0,7.75Z" transform="translate(7.5 7.5)" fill="#fff"/>
      <path id="Vector-3" data-name="Vector" d="M7,7.75a.748.748,0,0,1-.53-.22l-7-7A.75.75,0,0,1-.53-.53.75.75,0,0,1,.53-.53l7,7A.75.75,0,0,1,7,7.75Z" transform="translate(7.5 7.5)" fill="#fff"/>
      <path id="Vector-4" data-name="Vector" d="M0,0H22V22H0Z" fill="none" opacity="0"/>
    </g>
  </g>
</svg>
