<svg xmlns="http://www.w3.org/2000/svg" width="22" height="22" viewBox="0 0 22 22">
  <g id="vuesax_linear_headphone" data-name="vuesax/linear/headphone" transform="translate(-620 -188)">
    <g id="headphone" transform="translate(620 188)">
      <path id="Vector" d="M3.274,18.5a4.035,4.035,0,0,1-2.83-1.156A3.86,3.86,0,0,1-.748,14.563V9.077A9.475,9.475,0,0,1,1.978,2.21,9.909,9.909,0,0,1,9.123-.75a10.012,10.012,0,0,1,7.064,2.858,9.555,9.555,0,0,1,2.9,6.864v5.493a3.86,3.86,0,0,1-1.193,2.782,4.051,4.051,0,0,1-5.659,0,3.86,3.86,0,0,1-1.193-2.782V11.959a2.368,2.368,0,0,1,.688-1.671,2.433,2.433,0,0,1,1.749-.719,2.464,2.464,0,0,1,1.689.661,2.341,2.341,0,0,1,.748,1.73v2.7a.75.75,0,1,1-1.5,0v-2.7a.938.938,0,0,0-1.873,0v2.506a2.524,2.524,0,0,0,5.045,0V8.971a8.067,8.067,0,0,0-2.45-5.793A8.521,8.521,0,0,0,9.123.75,8.42,8.42,0,0,0,3.05,3.259a7.987,7.987,0,0,0-2.3,5.795q0,.008,0,.015v5.493a2.524,2.524,0,0,0,5.045,0V12.057a.907.907,0,0,0-.937-.891.9.9,0,0,0-.937.891v2.6a.75.75,0,0,1-1.5,0v-2.6a2.368,2.368,0,0,1,.688-1.671A2.433,2.433,0,0,1,4.86,9.666a2.464,2.464,0,0,1,1.689.661,2.341,2.341,0,0,1,.748,1.73v2.506A3.86,3.86,0,0,1,6.1,17.344,4.038,4.038,0,0,1,3.274,18.5Z" transform="translate(1.831 2.374)" fill="#fff"/>
      <path id="Vector-2" data-name="Vector" d="M0,0H22V22H0Z" fill="none" opacity="0"/>
    </g>
  </g>
</svg>
