<svg xmlns="http://www.w3.org/2000/svg" width="19.514" height="19.514" viewBox="0 0 19.514 19.514">
  <path id="_6b3e072d77da672bcdccf841eac350d3" data-name="6b3e072d77da672bcdccf841eac350d3" d="M20.85,9.366l-1.844-.615.868-1.737A.976.976,0,0,0,19.689,5.9L17.611,3.825a.976.976,0,0,0-1.122-.185l-1.737.868-.615-1.844A.976.976,0,0,0,13.22,2H10.293a.976.976,0,0,0-.927.663L8.752,4.508,7.015,3.639A.976.976,0,0,0,5.9,3.825L3.825,5.9a.976.976,0,0,0-.185,1.122l.868,1.737-1.844.615A.976.976,0,0,0,2,10.293V13.22a.976.976,0,0,0,.663.927l1.844.615L3.639,16.5a.976.976,0,0,0,.185,1.112L5.9,19.689a.976.976,0,0,0,1.122.185l1.737-.868.615,1.844a.976.976,0,0,0,.927.663H13.23a.976.976,0,0,0,.927-.663l.615-1.844,1.737.868a.976.976,0,0,0,1.1-.185l2.078-2.078a.976.976,0,0,0,.185-1.122l-.868-1.737,1.844-.615a.976.976,0,0,0,.663-.917V10.293a.976.976,0,0,0-.663-.927Zm-1.288,3.151-1.171.39A1.951,1.951,0,0,0,17.26,15.66l.556,1.112-1.073,1.073L15.66,17.26a1.951,1.951,0,0,0-2.722,1.132l-.39,1.171H11l-.39-1.171A1.951,1.951,0,0,0,7.854,17.26l-1.112.556L5.669,16.743l.585-1.083a1.951,1.951,0,0,0-1.132-2.751l-1.171-.39V11l1.171-.39A1.951,1.951,0,0,0,6.254,7.854L5.7,6.771,6.771,5.7l1.083.556a1.951,1.951,0,0,0,2.751-1.132L11,3.951h1.522l.39,1.171A1.951,1.951,0,0,0,15.66,6.254L16.772,5.7l1.073,1.073L17.26,7.854a1.951,1.951,0,0,0,1.132,2.722l1.171.39ZM11.757,7.854a3.9,3.9,0,1,0,3.9,3.9A3.9,3.9,0,0,0,11.757,7.854Zm0,5.854a1.951,1.951,0,1,1,1.951-1.951A1.951,1.951,0,0,1,11.757,13.708Z" transform="translate(-2 -2)" fill="#7e7e7e"/>
</svg>
