<svg xmlns="http://www.w3.org/2000/svg" xmlns:xlink="http://www.w3.org/1999/xlink" width="22" height="22" viewBox="0 0 22 22">
  <defs>
    <clipPath id="clip-path">
      <rect id="사각형_7179" data-name="사각형 7179" width="22" height="22" transform="translate(-0.599 -0.127)" fill="#fff"/>
    </clipPath>
  </defs>
  <g id="마스크_그룹_107" data-name="마스크 그룹 107" transform="translate(0.599 0.127)" clip-path="url(#clip-path)">
    <path id="패스_46352" data-name="패스 46352" d="M5.631,1.97a3.419,3.419,0,0,1,3.6,3.209,3.419,3.419,0,0,1-3.6,3.209h-3.6V1.97h3.6m0-1.07H.833V9.456h4.8A4.561,4.561,0,0,0,10.423,5.18,4.561,4.561,0,0,0,5.631.9" transform="translate(-0.607 -0.527)" fill="#fff"/>
    <path id="패스_4258_-_윤곽선" data-name="패스 4258 - 윤곽선" d="M5.631,9.656h-5V.7h5a4.766,4.766,0,0,1,4.993,4.48A4.768,4.768,0,0,1,5.631,9.656Zm-4.6-.4h4.6A4.369,4.369,0,0,0,10.223,5.18,4.368,4.368,0,0,0,5.63,1.1h-4.6Zm4.6-.669h-3.8V1.77h3.8a3.623,3.623,0,0,1,3.8,3.409A3.622,3.622,0,0,1,5.631,8.588Zm-3.4-.4h3.4a3.224,3.224,0,0,0,3.4-3.009,3.224,3.224,0,0,0-3.4-3.009h-3.4Z" transform="translate(-0.607 -0.527)" fill="#fff"/>
    <path id="패스_46353" data-name="패스 46353" d="M5.631,1.97a3.419,3.419,0,0,1,3.6,3.209,3.419,3.419,0,0,1-3.6,3.209h-3.6V1.97h3.6m0-1.07H.833V9.456h4.8A4.561,4.561,0,0,0,10.423,5.18,4.561,4.561,0,0,0,5.631.9" transform="translate(-0.607 9.818)" fill="#fff"/>
    <path id="패스_46350_-_윤곽선" data-name="패스 46350 - 윤곽선" d="M5.631,9.656h-5V.7h5a4.766,4.766,0,0,1,4.993,4.48A4.768,4.768,0,0,1,5.631,9.656Zm-4.6-.4h4.6A4.369,4.369,0,0,0,10.223,5.18,4.368,4.368,0,0,0,5.63,1.1h-4.6Zm4.6-.669h-3.8V1.77h3.8a3.623,3.623,0,0,1,3.8,3.409A3.622,3.622,0,0,1,5.631,8.588Zm-3.4-.4h3.4a3.224,3.224,0,0,0,3.4-3.009,3.224,3.224,0,0,0-3.4-3.009h-3.4Z" transform="translate(-0.607 9.818)" fill="#fff"/>
    <path id="패스_46354" data-name="패스 46354" d="M28.343,1.97a3.423,3.423,0,0,1,3.6,3.21V8.389H24.746V5.18a3.423,3.423,0,0,1,3.6-3.209m0-1.07A4.561,4.561,0,0,0,23.548,5.18v4.28h9.59V5.18A4.561,4.561,0,0,0,28.343.9" transform="translate(-12.533 -0.527)" fill="#fff"/>
    <path id="패스_4259_-_윤곽선" data-name="패스 4259 - 윤곽선" d="M33.338,9.661h-9.99V5.18A4.767,4.767,0,0,1,28.343.7v0a4.766,4.766,0,0,1,5,4.48Zm-9.59-.4h9.19V5.18a4.367,4.367,0,0,0-4.6-4.08v0A4.368,4.368,0,0,0,23.748,5.18Zm8.391-.671H24.546V5.18a3.628,3.628,0,0,1,3.8-3.409h0a3.624,3.624,0,0,1,3.8,3.408Zm-7.193-.4h6.793V5.18a3.226,3.226,0,0,0-3.4-3.009,3.229,3.229,0,0,0-3.4,3.009Z" transform="translate(-12.533 -0.527)" fill="#fff"/>
    <path id="패스_46355" data-name="패스 46355" d="M28.343,1.97a3.423,3.423,0,0,1,3.6,3.21V8.389H24.746V5.18a3.423,3.423,0,0,1,3.6-3.209m0-1.07A4.561,4.561,0,0,0,23.548,5.18v4.28h9.59V5.18A4.561,4.561,0,0,0,28.343.9" transform="translate(-12.533 9.818)" fill="#fff"/>
    <path id="패스_46351_-_윤곽선" data-name="패스 46351 - 윤곽선" d="M33.338,9.661h-9.99V5.18A4.767,4.767,0,0,1,28.343.7v0a4.766,4.766,0,0,1,5,4.48Zm-9.59-.4h9.19V5.18a4.367,4.367,0,0,0-4.6-4.08v0A4.368,4.368,0,0,0,23.748,5.18Zm8.391-.671H24.546V5.18a3.628,3.628,0,0,1,3.8-3.409h0a3.624,3.624,0,0,1,3.8,3.408Zm-7.193-.4h6.793V5.18a3.226,3.226,0,0,0-3.4-3.009,3.229,3.229,0,0,0-3.4,3.009Z" transform="translate(-12.533 9.818)" fill="#fff"/>
  </g>
</svg>
