<svg xmlns="http://www.w3.org/2000/svg" width="22" height="22" viewBox="0 0 22 22">
  <g id="vuesax_linear_dollar-circle" data-name="vuesax/linear/dollar-circle" transform="translate(-236 -572)">
    <g id="dollar-circle" transform="translate(236 572)">
      <path id="Vector" d="M4.73,10.07H2.22A3.03,3.03,0,0,1-.75,6.99.75.75,0,0,1,0,6.24a.75.75,0,0,1,.75.75A1.53,1.53,0,0,0,2.22,8.57H4.73A1.239,1.239,0,0,0,5.92,7.29c0-.84-.263-1.025-.821-1.223l-4.026-1.4A2.476,2.476,0,0,1-.75,2.03,2.739,2.739,0,0,1,1.94-.75H4.45A3.03,3.03,0,0,1,7.42,2.33a.75.75,0,0,1-1.5,0A1.53,1.53,0,0,0,4.45.75H1.94A1.239,1.239,0,0,0,.75,2.03c0,.84.263,1.025.821,1.223L5.6,4.652A2.476,2.476,0,0,1,7.42,7.29,2.739,2.739,0,0,1,4.73,10.07Z" transform="translate(7.671 6.34)" fill="#fff"/>
      <path id="Vector-2" data-name="Vector" d="M0,12.158a.734.734,0,0,1-.75-.717V-.033A.734.734,0,0,1,0-.75a.734.734,0,0,1,.75.717V11.441A.734.734,0,0,1,0,12.158Z" transform="translate(11 5.296)" fill="#fff"/>
      <path id="Vector-3" data-name="Vector" d="M9-.75A9.75,9.75,0,0,1,18.75,9,9.75,9.75,0,0,1,9,18.75,9.75,9.75,0,0,1-.75,9,9.75,9.75,0,0,1,9-.75ZM9,17.39A8.39,8.39,0,1,0,.61,9,8.4,8.4,0,0,0,9,17.39Z" transform="translate(2 2)" fill="#fff"/>
      <path id="Vector-4" data-name="Vector" d="M0,0H22V22H0Z" fill="none" opacity="0"/>
    </g>
  </g>
</svg>
