<svg xmlns="http://www.w3.org/2000/svg" width="12" height="10">
    <path fill="#FD6660" fill-rule="evenodd" d="M11.88 8.787L7.153.395C7.016.15 6.761 0 6.486 0c-.276 0-.53.15-.667.395l-4.743 8.42c-.138.244-.138.545 0 .79.138.244.392.395.668.395h9.485c.426 0 .771-.354.771-.79 0-.155-.044-.3-.12-.423zm-4.777-.504c0 .349-.277.632-.617.632-.341 0-.617-.283-.617-.632v-.184c0-.349.276-.632.617-.632.34 0 .617.283.617.632v.184zm0-2.259c0 .349-.277.632-.617.632-.341 0-.617-.283-.617-.632V3.486c0-.349.276-.632.617-.632.34 0 .617.283.617.632v2.538z"/>
</svg>
