<svg id="_1e7f1590adb2a2afc5886930a12e0d82" data-name="1e7f1590adb2a2afc5886930a12e0d82" xmlns="http://www.w3.org/2000/svg" width="12" height="12" viewBox="0 0 12 12">
  <path id="패스_46222" data-name="패스 46222" d="M13.4,13.79a.6.6,0,0,1-.6-.6v-2.4H10.4a.6.6,0,1,1,0-1.2h3a.6.6,0,0,1,.6.6v3A.6.6,0,0,1,13.4,13.79ZM5.6,7.2h-3A.6.6,0,0,1,2,6.6v-3a.6.6,0,0,1,1.2,0V6H5.6a.6.6,0,1,1,0,1.2Z" transform="translate(-2 -2.39)"/>
  <path id="패스_46223" data-name="패스 46223" d="M8.022,13.984A6,6,0,0,1,2.057,8.653a.6.6,0,0,1,1.2-.131,4.8,4.8,0,0,0,9.3,1.067.6.6,0,1,1,1.128.4A6,6,0,0,1,8.022,13.984Zm5.364-6a.6.6,0,0,1-.6-.534A4.8,4.8,0,0,0,3.5,6.388a.6.6,0,1,1-1.128-.4A6,6,0,0,1,13.992,7.317a.6.6,0,0,1-.528.659Z" transform="translate(-2.022 -1.984)"/>
</svg>
