<svg xmlns="http://www.w3.org/2000/svg" width="13.44" height="10.754" viewBox="0 0 13.44 10.754">
  <path id="_2f063a8dc25f2ec13d7e4f32819acb5d" data-name="2f063a8dc25f2ec13d7e4f32819acb5d" d="M13.042,6.843A4.709,4.709,0,0,0,4.055,8.114a2.691,2.691,0,0,0,.632,5.307.673.673,0,1,0,0-1.345,1.345,1.345,0,0,1,0-2.691.673.673,0,0,0,.673-.673A3.363,3.363,0,0,1,11.905,7.63a.673.673,0,0,0,.525.451,2.018,2.018,0,0,1,.161,3.928.674.674,0,1,0,.336,1.3,3.363,3.363,0,0,0,.114-6.471ZM9.2,8.235a.7.7,0,0,0-.955,0L6.228,10.253a.675.675,0,0,0,.955.955l.868-.874v3.76a.673.673,0,0,0,1.345,0v-3.76l.868.874a.675.675,0,1,0,.955-.955Z" transform="translate(-1.991 -4.013)" fill="#959595"/>
</svg>
