<svg xmlns="http://www.w3.org/2000/svg" width="17.613" height="18.78" viewBox="0 0 17.613 18.78">
  <g id="그룹_30081" data-name="그룹 30081" transform="translate(-469.447 -825.733)">
    <path id="패스_4054" data-name="패스 4054" d="M-238.734-74.272a52.065,52.065,0,0,0-5.015-3.588.233.233,0,0,1-.033-.374,6.648,6.648,0,0,0,1.888-4.032c.243-5.02-4.037-4.8-4.037-4.8s-4.279-.224-4.036,4.8a6.676,6.676,0,0,0,1.858,4.008.233.233,0,0,1-.035.373,52.032,52.032,0,0,0-5.057,3.613c-1.578,1.292-.615,4.484,1.425,4.484h11.618C-238.119-69.788-237.155-72.981-238.734-74.272Z" transform="translate(724.221 913.551)" fill="none" stroke="#fff" stroke-miterlimit="10" stroke-width="1.5"/>
  </g>
</svg>
