<svg xmlns="http://www.w3.org/2000/svg" width="22" height="22" viewBox="0 0 22 22">
  <g id="vuesax_linear_bag" data-name="vuesax/linear/bag" transform="translate(-108 -188)">
    <g id="bag" transform="translate(108 188)">
      <path id="Vector" d="M0,4.078a.748.748,0,0,1-.53-.219.75.75,0,0,1,0-1.061L2.787-.53a.75.75,0,0,1,1.061,0,.75.75,0,0,1,0,1.061L.531,3.857A.748.748,0,0,1,0,4.078Z" transform="translate(4.758 1.833)" fill="#fff"/>
      <path id="Vector-2" data-name="Vector" d="M3.318,4.078a.748.748,0,0,1-.531-.22L-.531.53a.75.75,0,0,1,0-1.061.75.75,0,0,1,1.061,0L3.849,2.8a.75.75,0,0,1-.531,1.28Z" transform="translate(13.924 1.833)" fill="#fff"/>
      <path id="Vector-3" data-name="Vector" d="M2.035-.75H16.3a3.272,3.272,0,0,1,1.858.408,2.4,2.4,0,0,1,.927,2.176,2.717,2.717,0,0,1-.736,2.143,2.453,2.453,0,0,1-1.646.443l-.4,0H2.035l-.4,0A2.453,2.453,0,0,1-.014,3.976,2.717,2.717,0,0,1-.75,1.833,2.4,2.4,0,0,1,.177-.342,3.272,3.272,0,0,1,2.035-.75ZM16.7,2.919a1.546,1.546,0,0,0,.686-.1c.033-.027.2-.2.2-.99,0-.344-.045-.784-.262-.929A2.2,2.2,0,0,0,16.3.75H2.035A2.2,2.2,0,0,0,1.012.9C.8,1.049.75,1.489.75,1.833c0,.787.163.963.2.99a1.547,1.547,0,0,0,.686.1l.4,0H16.3Z" transform="translate(1.833 5.363)" fill="#fff"/>
      <path id="Vector-4" data-name="Vector" d="M0,4a.75.75,0,0,1-.75-.75V0A.75.75,0,0,1,0-.75.75.75,0,0,1,.75,0V3.254A.75.75,0,0,1,0,4Z" transform="translate(8.947 12.833)" fill="#fff"/>
      <path id="Vector-5" data-name="Vector" d="M0,4a.75.75,0,0,1-.75-.75V0A.75.75,0,0,1,0-.75.75.75,0,0,1,.75,0V3.254A.75.75,0,0,1,0,4Z" transform="translate(13.163 12.833)" fill="#fff"/>
      <path id="Vector-6" data-name="Vector" d="M10.441,11.75H4.913C1.59,11.75.837,9.768.552,8.042L-.74.121A.75.75,0,0,1-.121-.74.75.75,0,0,1,.74-.121L2.033,7.8c.262,1.589.8,2.451,2.881,2.451h5.528a3.013,3.013,0,0,0,2.2-.607,3.44,3.44,0,0,0,.662-1.754l1.54-8.03a.75.75,0,0,1,.878-.6.75.75,0,0,1,.6.878l-1.54,8.03C14.419,10.057,13.815,11.75,10.441,11.75Z" transform="translate(3.208 9.167)" fill="#fff"/>
      <path id="Vector-7" data-name="Vector" d="M0,0H22V22H0Z" fill="none" opacity="0"/>
    </g>
  </g>
</svg>
