<svg xmlns="http://www.w3.org/2000/svg" width="15" height="15" viewBox="0 0 15 15">
  <path id="_55875de67f0001d7695d7cadee652fba" data-name="55875de67f0001d7695d7cadee652fba" d="M16.476,8.06a2.25,2.25,0,0,0-1.725-.81h-3.42l.42-1.072A3.1,3.1,0,0,0,8.833,2a.75.75,0,0,0-.683.442L6.013,7.25H4.25A2.25,2.25,0,0,0,2,9.5v5.25A2.25,2.25,0,0,0,4.25,17H13.8a2.25,2.25,0,0,0,2.213-1.845l.953-5.25A2.25,2.25,0,0,0,16.476,8.06ZM5.75,15.5H4.25a.75.75,0,0,1-.75-.75V9.5a.75.75,0,0,1,.75-.75h1.5ZM15.5,9.635l-.953,5.25a.75.75,0,0,1-.75.615H7.25V8.157l2.04-4.59a1.582,1.582,0,0,1,1.035,2.085l-.4,1.072a1.5,1.5,0,0,0,1.4,2.025h3.42a.765.765,0,0,1,.75.885Z" transform="translate(-2 -2)" fill="#ddd"/>
</svg>
