<svg xmlns="http://www.w3.org/2000/svg" width="10.108" height="11.243" viewBox="0 0 10.108 11.243">
  <path id="패스_46224" data-name="패스 46224" d="M12.852,9.426,11.84,8.409V5.9A3.856,3.856,0,0,0,8.569,2.035,3.789,3.789,0,0,0,4.286,5.784V8.409L3.274,9.426a.922.922,0,0,0,.652,1.568H5.815v.191a2.159,2.159,0,0,0,2.248,2.057,2.159,2.159,0,0,0,2.248-2.057v-.191H12.2a.922.922,0,0,0,.652-1.568ZM9.187,11.186a1.057,1.057,0,0,1-1.124.933,1.057,1.057,0,0,1-1.124-.933v-.191H9.187ZM4.415,9.871l.663-.663a1.124,1.124,0,0,0,.332-.8V5.784a2.659,2.659,0,0,1,.911-2,2.625,2.625,0,0,1,2.1-.658A2.732,2.732,0,0,1,10.716,5.88V8.409a1.124,1.124,0,0,0,.326.8l.669.663Z" transform="translate(-3.009 -2.002)" fill="#fff"/>
</svg>
