<svg xmlns="http://www.w3.org/2000/svg" width="14.001" height="14" viewBox="0 0 14.001 14">
  <g id="그룹_31269" data-name="그룹 31269" transform="translate(-1022 -469)">
    <path id="Back_Plate-3" data-name="Back Plate-3" d="M7.17,12.66H18.83A1.181,1.181,0,0,1,20,13.835v11.63a1.179,1.179,0,0,1-1.15,1.195H7.17A1.162,1.162,0,0,1,6,25.5V13.835A1.181,1.181,0,0,1,7.17,12.66Z" transform="translate(1016 456.34)" fill="#146d3a"/>
    <path id="패스_46319" data-name="패스 46319" d="M9.18,24.54l2.75-4.48L9.4,15.63h2l1.37,2.83c.1.21.19.41.27.63a5.111,5.111,0,0,1,.29-.63l1.45-2.81h1.86l-2.56,4.41,2.65,4.47h-2l-1.6-3.08c-.07-.13-.13-.27-.19-.41a2.09,2.09,0,0,1-.19.4l-1.63,3.11Z" transform="translate(1016 455.91)" fill="#fff"/>
  </g>
</svg>
