<svg xmlns="http://www.w3.org/2000/svg" width="22" height="22" viewBox="0 0 22 22">
  <g id="vuesax_linear_personalcard" data-name="vuesax/linear/personalcard" transform="translate(-172 -252)">
    <g id="personalcard" transform="translate(172 252)">
      <path id="Vector" d="M13.776,17.3H4.592c-2.178,0-3.4-.33-4.2-1.14S-.75,14.133-.75,11.954V4.6C-.75,2.418-.42,1.2.388.39S2.414-.75,4.592-.75h9.184c2.178,0,3.4.33,4.2,1.14S19.118,2.418,19.118,4.6v7.356c0,2.18-.33,3.4-1.138,4.208S15.953,17.3,13.776,17.3ZM4.592.75c-1.713,0-2.653.209-3.143.7S.75,2.882.75,4.6v7.356c0,1.716.209,2.657.7,3.148s1.43.7,3.143.7h9.184c1.713,0,2.653-.209,3.143-.7s.7-1.432.7-3.148V4.6c0-1.716-.209-2.657-.7-3.148s-1.43-.7-3.143-.7Z" transform="translate(1.816 2.724)" fill="#fff"/>
      <path id="Vector-2" data-name="Vector" d="M4.541.75H0A.75.75,0,0,1-.75,0,.75.75,0,0,1,0-.75H4.541a.75.75,0,0,1,.75.75A.75.75,0,0,1,4.541.75Z" transform="translate(12.865 7.333)" fill="#fff"/>
      <path id="Vector-3" data-name="Vector" d="M3.632.75H0A.75.75,0,0,1-.75,0,.75.75,0,0,1,0-.75H3.632a.75.75,0,0,1,.75.75A.75.75,0,0,1,3.632.75Z" transform="translate(13.776 11)" fill="#fff"/>
      <path id="Vector-4" data-name="Vector" d="M1.816.75H0A.75.75,0,0,1-.75,0,.75.75,0,0,1,0-.75H1.816a.75.75,0,0,1,.75.75A.75.75,0,0,1,1.816.75Z" transform="translate(15.597 14.667)" fill="#fff"/>
      <path id="Vector-5" data-name="Vector" d="M1.644-.75A2.394,2.394,0,1,1-.75,1.644,2.4,2.4,0,0,1,1.644-.75Zm0,3.287A.894.894,0,1,0,.75,1.644.895.895,0,0,0,1.644,2.537Z" transform="translate(6.143 7.042)" fill="#fff"/>
      <path id="Vector-6" data-name="Vector" d="M6.356,3.254a.75.75,0,0,1-.746-.678A2,2,0,0,0,3.8.781H3.794a6.268,6.268,0,0,0-1.233,0,2.011,2.011,0,0,0-1.815,1.8.75.75,0,0,1-.819.674.75.75,0,0,1-.674-.819A3.513,3.513,0,0,1,2.416-.712a7.769,7.769,0,0,1,1.523,0A3.5,3.5,0,0,1,7.1,2.432a.75.75,0,0,1-.674.819C6.4,3.253,6.38,3.254,6.356,3.254Z" transform="translate(4.601 12.457)" fill="#fff"/>
      <path id="Vector-7" data-name="Vector" d="M0,0H22V22H0Z" fill="none" opacity="0"/>
    </g>
  </g>
</svg>
