<svg xmlns="http://www.w3.org/2000/svg" width="22" height="22" viewBox="0 0 22 22">
  <g id="vuesax_linear_shopping-bag" data-name="vuesax/linear/shopping-bag" transform="translate(-686 -188)">
    <g id="shopping-bag" transform="translate(686 188)">
      <path id="Vector" d="M4.527-.75h6.625A4.284,4.284,0,0,1,14.643.455a4.78,4.78,0,0,1,.907,2.661l.828,6.81a4.465,4.465,0,0,1-.838,3.623,4.546,4.546,0,0,1-3.56,1.277H3.708A4.552,4.552,0,0,1,.137,13.544,4.446,4.446,0,0,1-.69,9.925L.138,3.115a4.734,4.734,0,0,1,.9-2.659A4.279,4.279,0,0,1,4.527-.75ZM11.98,13.326a3.169,3.169,0,0,0,2.438-.773,3.083,3.083,0,0,0,.47-2.448L14.06,3.3A3.586,3.586,0,0,0,13.5,1.429,3.031,3.031,0,0,0,11.152.75H4.527C1.92.75,1.8,1.761,1.628,3.291L.8,10.107A3.067,3.067,0,0,0,1.26,12.55a3.176,3.176,0,0,0,2.447.776Z" transform="translate(3.161 6.108)" fill="#fff"/>
      <path id="Vector-2" data-name="Vector" d="M7.265,6.75A.75.75,0,0,1,6.515,6V2.5c0-1.079-.583-1.75-1.52-1.75H2.27C1.333.75.75,1.421.75,2.5V6A.75.75,0,0,1,0,6.75.75.75,0,0,1-.75,6V2.5A3.005,3.005,0,0,1,2.27-.75H4.995A3.005,3.005,0,0,1,8.015,2.5V6A.75.75,0,0,1,7.265,6.75Z" transform="translate(7.368 1.816)" fill="#fff"/>
      <path id="Vector-3" data-name="Vector" d="M11.27.75H0A.75.75,0,0,1-.75,0,.75.75,0,0,1,0-.75H11.27a.75.75,0,0,1,.75.75A.75.75,0,0,1,11.27.75Z" transform="translate(7.47 15.611)" fill="#fff"/>
      <path id="Vector-4" data-name="Vector" d="M0,0H22V22H0Z" fill="none" opacity="0"/>
    </g>
  </g>
</svg>
