<svg xmlns="http://www.w3.org/2000/svg" width="22" height="22" viewBox="0 0 22 22">
  <g id="vuesax_linear_setting" data-name="vuesax/linear/setting" transform="translate(-236 -188)">
    <g id="setting" transform="translate(236 188)">
      <path id="Vector" d="M8.332-.75a3.48,3.48,0,0,1,1.746.435L15.2,2.672l.041.026a5.511,5.511,0,0,1,1.843,1.59,4.312,4.312,0,0,1,.327,2.247v5.433a4.312,4.312,0,0,1-.327,2.247,5.511,5.511,0,0,1-1.843,1.59l-.041.026-5.121,2.989a3.478,3.478,0,0,1-1.743.433,3.521,3.521,0,0,1-1.75-.433L1.461,15.831l-.041-.026A5.5,5.5,0,0,1-.424,14.214,4.341,4.341,0,0,1-.75,11.959V6.535A4.312,4.312,0,0,1-.423,4.288,5.511,5.511,0,0,1,1.42,2.7l.041-.026L6.582-.317A3.52,3.52,0,0,1,8.332-.75Zm6.144,4.631L9.376.9A2.118,2.118,0,0,0,8.332.66,2.156,2.156,0,0,0,7.281.9l-5.1,2.977a5.311,5.311,0,0,0-1.4,1.113A3.77,3.77,0,0,0,.647,6.535v5.424a3.8,3.8,0,0,0,.139,1.55,5.29,5.29,0,0,0,1.395,1.113l5.1,2.977a2.156,2.156,0,0,0,1.051.244,2.117,2.117,0,0,0,1.04-.242l5.1-2.979a5.31,5.31,0,0,0,1.4-1.113,3.77,3.77,0,0,0,.139-1.541V6.535a3.77,3.77,0,0,0-.139-1.541A5.311,5.311,0,0,0,14.476,3.881Z" transform="translate(2.672 1.747)" fill="#fff"/>
      <path id="Vector-2" data-name="Vector" d="M3-.75A3.75,3.75,0,1,1-.75,3,3.754,3.754,0,0,1,3-.75Zm0,6A2.25,2.25,0,1,0,.75,3,2.253,2.253,0,0,0,3,5.25Z" transform="translate(8 8)" fill="#fff"/>
      <path id="Vector-3" data-name="Vector" d="M0,0H22V22H0Z" fill="none" opacity="0"/>
    </g>
  </g>
</svg>
