<svg xmlns="http://www.w3.org/2000/svg" viewBox="0 0 22 22"><g id="vuesax_linear_3d-square" data-name="vuesax/linear/3d-square" transform="translate(-300 -252)"><g id="_3d-square" data-name="3d-square" transform="translate(300 252)"><path id="menu_svg01" d="M12.5,19.984H6.732c-2.672,0-4.483-.566-5.7-1.782S-.75,15.174-.75,12.5V6.732c0-2.672.566-4.483,1.782-5.7S4.059-.75,6.732-.75H12.5c2.672,0,4.483.566,5.7,1.782s1.782,3.027,1.782,5.7V12.5c0,2.672-.566,4.483-1.782,5.7S15.174,19.984,12.5,19.984ZM6.732.75c-2.248,0-3.722.427-4.639,1.343S.75,4.483.75,6.732V12.5c0,2.248.427,3.722,1.343,4.639s2.39,1.343,4.639,1.343H12.5c2.248,0,3.722-.427,4.639-1.343s1.343-2.39,1.343-4.639V6.732c0-2.248-.427-3.722-1.343-4.639S14.75.75,12.5.75Z" transform="translate(1.383 1.383)" fill="#fff"/><g id="Group" transform="translate(5.72 5.497)"><g id="Group-2" data-name="Group" transform="translate(0.422 2.992)"><path id="menu_svg02" data-name="vector02" d="M4.858,3.564a.749.749,0,0,1-.376-.1L-.376.649A.75.75,0,0,1-.649-.376.75.75,0,0,1,.376-.649l4.482,2.6L9.3-.63a.75.75,0,1,1,.752,1.3l-4.822,2.8A.75.75,0,0,1,4.858,3.564Z" fill="#fff"/><path id="menu_svg03" data-name="Vector" d="M0,5.746A.75.75,0,0,1-.75,5V0A.75.75,0,0,1,0-.75.75.75,0,0,1,.75,0V5A.75.75,0,0,1,0,5.746Z" transform="translate(4.858 2.805)" fill="#fff"/></g><path id="menu_svg04" data-name="Vector" d="M5.289-.75h0a3.158,3.158,0,0,1,1.5.353L9.724,1.236a3.305,3.305,0,0,1,1.6,2.709V7.062a3.371,3.371,0,0,1-1.6,2.709L6.79,11.4a3.177,3.177,0,0,1-1.509.356,3.133,3.133,0,0,1-1.5-.357L.845,9.771A3.305,3.305,0,0,1-.75,7.062V3.954a3.371,3.371,0,0,1,1.6-2.709l2.93-1.63A3.1,3.1,0,0,1,5.289-.75ZM5.281,10.258a1.715,1.715,0,0,0,.783-.168L8.995,8.46a1.88,1.88,0,0,0,.825-1.4V3.945A1.835,1.835,0,0,0,9,2.55L6.061.916A1.7,1.7,0,0,0,5.289.75h0a1.641,1.641,0,0,0-.773.17l-.009,0L1.575,2.556a1.88,1.88,0,0,0-.825,1.4V7.062a1.835,1.835,0,0,0,.82,1.4l2.938,1.634A1.675,1.675,0,0,0,5.281,10.258Z" transform="translate(0 0)" fill="#fff"/></g></g></g></svg>