<svg xmlns="http://www.w3.org/2000/svg" width="22" height="22" viewBox="0 0 22 22">
  <g id="vuesax_linear_user-octagon" data-name="vuesax/linear/user-octagon" transform="translate(-620 -188)">
    <g id="user-octagon" transform="translate(620 188)">
      <path id="Vector" d="M8.3-.75a3.662,3.662,0,0,1,1.815.483l5.432,3.14,0,0a3.665,3.665,0,0,1,1.8,3.144v6.258a3.665,3.665,0,0,1-1.8,3.144l0,0-5.429,3.138a3.624,3.624,0,0,1-1.811.485,3.662,3.662,0,0,1-1.815-.483l-5.432-3.14A3.642,3.642,0,0,1-.75,12.279V6.02a3.665,3.665,0,0,1,1.8-3.144l0,0L6.488-.265A3.624,3.624,0,0,1,8.3-.75Zm6.494,4.921L9.367,1.034A2.156,2.156,0,0,0,8.3.75a2.122,2.122,0,0,0-1.061.284L1.813,4.171A2.159,2.159,0,0,0,.75,6.02v6.258a2.138,2.138,0,0,0,1.06,1.849l5.429,3.138a2.156,2.156,0,0,0,1.068.284,2.122,2.122,0,0,0,1.061-.284l5.426-3.137a2.159,2.159,0,0,0,1.063-1.85V6.02A2.131,2.131,0,0,0,14.793,4.171Z" transform="translate(2.692 1.85)" fill="#fff"/>
      <g id="Group" transform="translate(7.299 5.771)">
        <path id="Vector-2" data-name="Vector" d="M2.156-.75A2.906,2.906,0,1,1-.75,2.156,2.909,2.909,0,0,1,2.156-.75Zm0,4.311A1.406,1.406,0,1,0,.75,2.156,1.407,1.407,0,0,0,2.156,3.561Z" transform="translate(1.545)" fill="#fff"/>
        <path id="Vector-3" data-name="Vector" d="M7.4,3.766a.75.75,0,0,1-.75-.75C6.652,1.767,5.328.75,3.7.75S.75,1.767.75,3.016a.75.75,0,0,1-.75.75.75.75,0,0,1-.75-.75A3.483,3.483,0,0,1,.61.3,4.888,4.888,0,0,1,3.7-.75,4.888,4.888,0,0,1,6.792.3a3.483,3.483,0,0,1,1.36,2.714A.75.75,0,0,1,7.4,3.766Z" transform="translate(0 6.532)" fill="#fff"/>
      </g>
      <path id="Vector-4" data-name="Vector" d="M0,0H22V22H0Z" fill="none" opacity="0"/>
    </g>
  </g>
</svg>
