<svg id="clipboard" xmlns="http://www.w3.org/2000/svg" width="22" height="22" viewBox="0 0 22 22">
  <path id="Vector" d="M5.1-.75a10.588,10.588,0,0,1,1.637.139l4.3.679c2.049.32,4.794,1.146,4.977,4.611a9.467,9.467,0,0,1-.127,2.057l-.669,4.3a6.69,6.69,0,0,1-1.574,3.728,4.565,4.565,0,0,1-3.457,1.272A10.588,10.588,0,0,1,8.55,15.9l-4.3-.679a7.437,7.437,0,0,1-3.2-1.145C-.989,12.651-.874,10.239-.61,8.549l.679-4.3A6.687,6.687,0,0,1,1.643.522,4.565,4.565,0,0,1,5.1-.75Zm5.088,15.285a3.116,3.116,0,0,0,2.383-.819A5.31,5.31,0,0,0,13.737,10.8l.669-4.3a8.006,8.006,0,0,0,.112-1.733v-.01a2.86,2.86,0,0,0-.889-2.128A5.459,5.459,0,0,0,10.805,1.55L6.5.871A9.238,9.238,0,0,0,5.1.75a3.116,3.116,0,0,0-2.383.819A5.31,5.31,0,0,0,1.551,4.483l-.678,4.3A6.358,6.358,0,0,0,.893,11.4a2.468,2.468,0,0,0,1.015,1.447l.006,0a6.021,6.021,0,0,0,2.568.888l4.3.679A9.238,9.238,0,0,0,10.187,14.535Z" transform="translate(1.812 1.831)" fill="#fff"/>
  <path id="Vector-2" data-name="Vector" d="M13.787-.75a.749.749,0,0,1,.352.088,4.475,4.475,0,0,1,2.4,2.711,6.737,6.737,0,0,1-.331,3.981l-1.375,4.134c-.6,1.8-1.737,4.2-4.684,4.2a8.594,8.594,0,0,1-2.69-.506L3.329,12.482C.952,11.7-.339,10.561-.73,8.909a.75.75,0,0,1,.311-.795.75.75,0,0,1,.853.011A6.021,6.021,0,0,0,3,9.012l4.3.679a9.238,9.238,0,0,0,1.4.121,3.116,3.116,0,0,0,2.383-.819,5.311,5.311,0,0,0,1.166-2.914l.669-4.3A8.006,8.006,0,0,0,13.038.049a.75.75,0,0,1,.341-.679A.75.75,0,0,1,13.787-.75ZM10.154,12.863a2.589,2.589,0,0,0,1.884-.7,5.9,5.9,0,0,0,1.377-2.476l1.375-4.134c.715-2.151.474-3.34-.3-4.14q-.032.286-.08.6l-.669,4.3a6.69,6.69,0,0,1-1.574,3.728,4.565,4.565,0,0,1-3.457,1.272,10.738,10.738,0,0,1-1.637-.139l-4.3-.679q-.244-.038-.475-.083a8.355,8.355,0,0,0,1.506.647l4.136,1.375A7.154,7.154,0,0,0,10.154,12.863Z" transform="translate(3.291 6.554)" fill="#fff"/>
  <path id="Vector-3" data-name="Vector" d="M1.595-.75A2.345,2.345,0,1,1-.75,1.595,2.348,2.348,0,0,1,1.595-.75Zm0,3.19A.845.845,0,1,0,.75,1.595.846.846,0,0,0,1.595,2.44Z" transform="translate(5.958 5.042)" fill="#fff"/>
  <path id="Vector-4" data-name="Vector" d="M0,0H22V22H0Z" transform="translate(22 22) rotate(180)" fill="none" opacity="0"/>
</svg>
