<svg xmlns="http://www.w3.org/2000/svg" width="22" height="22" viewBox="0 0 22 22">
  <g id="vuesax_linear_status-up" data-name="vuesax/linear/status-up" transform="translate(-236 -252)">
    <g id="status-up" transform="translate(236 252)">
      <path id="Vector" d="M0,2.647A.75.75,0,0,1-.75,1.9V0A.75.75,0,0,1,0-.75.75.75,0,0,1,.75,0V1.9A.75.75,0,0,1,0,2.647Z" transform="translate(6.307 14.74)" fill="#fff"/>
      <path id="Vector-2" data-name="Vector" d="M0,4.545a.75.75,0,0,1-.75-.75V0A.75.75,0,0,1,0-.75.75.75,0,0,1,.75,0v3.8A.75.75,0,0,1,0,4.545Z" transform="translate(11 12.843)" fill="#fff"/>
      <path id="Vector-3" data-name="Vector" d="M0,6.452A.75.75,0,0,1-.75,5.7V0A.75.75,0,0,1,0-.75.75.75,0,0,1,.75,0V5.7A.75.75,0,0,1,0,6.452Z" transform="translate(15.693 10.936)" fill="#fff"/>
      <path id="Vector-4" data-name="Vector" d="M0,6.782a.75.75,0,0,1-.727-.569A.75.75,0,0,1-.181,5.3,16.467,16.467,0,0,0,8.4.007l.421-.494A.75.75,0,0,1,9.873-.571.75.75,0,0,1,9.958.486l-.422.5A18,18,0,0,1,5.31,4.6,18.07,18.07,0,0,1,.181,6.759.752.752,0,0,1,0,6.782Z" transform="translate(6.307 5.363)" fill="#fff"/>
      <path id="Vector-5" data-name="Vector" d="M2.686,3.427a.75.75,0,0,1-.75-.75V.75H0A.75.75,0,0,1-.75,0,.75.75,0,0,1,0-.75H2.686a.75.75,0,0,1,.75.75V2.677A.75.75,0,0,1,2.686,3.427Z" transform="translate(13.008 5.363)" fill="#fff"/>
      <path id="Vector-6" data-name="Vector" d="M11.917,19.083h-5.5c-2.557,0-4.291-.543-5.457-1.709S-.75,14.474-.75,11.917v-5.5C-.75,3.86-.207,2.125.959.959S3.86-.75,6.417-.75h5.5c2.557,0,4.291.543,5.457,1.709s1.709,2.9,1.709,5.457v5.5c0,2.557-.543,4.291-1.709,5.457S14.474,19.083,11.917,19.083ZM6.417.75c-2.133,0-3.53.4-4.4,1.27S.75,4.283.75,6.417v5.5c0,2.133.4,3.53,1.27,4.4s2.263,1.27,4.4,1.27h5.5c2.133,0,3.53-.4,4.4-1.27s1.27-2.263,1.27-4.4v-5.5c0-2.133-.4-3.53-1.27-4.4S14.05.75,11.917.75Z" transform="translate(1.833 1.833)" fill="#fff"/>
      <path id="Vector-7" data-name="Vector" d="M0,0H22V22H0Z" fill="none" opacity="0"/>
    </g>
  </g>
</svg>