<svg id="menusvg2" xmlns="http://www.w3.org/2000/svg" xmlns:xlink="http://www.w3.org/1999/xlink" viewBox="0 0 22 22">
<g id="maste" transform="translate(0.599 0.127)" clip-path="url(#clip-path)">
    <path id="path1" data-name="path1" d="M5.631,1.97a3.419,3.419,0,0,1,3.6,3.209,3.419,3.419,0,0,1-3.6,3.209h-3.6V1.97h3.6m0-1.07H.833V9.456h4.8A4.561,4.561,0,0,0,10.423,5.18,4.561,4.561,0,0,0,5.631.9" transform="translate(-0.607 -0.527)" fill="#fd6660"></path>
    <path id="path1_line" data-name="path1_line" d="M5.631,9.656h-5V.7h5a4.766,4.766,0,0,1,4.993,4.48A4.768,4.768,0,0,1,5.631,9.656Zm-4.6-.4h4.6A4.369,4.369,0,0,0,10.223,5.18,4.368,4.368,0,0,0,5.63,1.1h-4.6Zm4.6-.669h-3.8V1.77h3.8a3.623,3.623,0,0,1,3.8,3.409A3.622,3.622,0,0,1,5.631,8.588Zm-3.4-.4h3.4a3.224,3.224,0,0,0,3.4-3.009,3.224,3.224,0,0,0-3.4-3.009h-3.4Z" transform="translate(-0.607 -0.527)" fill="#fd6660"></path>
    <path id="path2" data-name="path2" d="M5.631,1.97a3.419,3.419,0,0,1,3.6,3.209,3.419,3.419,0,0,1-3.6,3.209h-3.6V1.97h3.6m0-1.07H.833V9.456h4.8A4.561,4.561,0,0,0,10.423,5.18,4.561,4.561,0,0,0,5.631.9" transform="translate(-0.607 9.818)" fill="#fd6660"></path>
    <path id="path2_line" data-name="path2_line" d="M5.631,9.656h-5V.7h5a4.766,4.766,0,0,1,4.993,4.48A4.768,4.768,0,0,1,5.631,9.656Zm-4.6-.4h4.6A4.369,4.369,0,0,0,10.223,5.18,4.368,4.368,0,0,0,5.63,1.1h-4.6Zm4.6-.669h-3.8V1.77h3.8a3.623,3.623,0,0,1,3.8,3.409A3.622,3.622,0,0,1,5.631,8.588Zm-3.4-.4h3.4a3.224,3.224,0,0,0,3.4-3.009,3.224,3.224,0,0,0-3.4-3.009h-3.4Z" transform="translate(-0.607 9.818)" fill="#fd6660"></path>
    <path id="path3" data-name="path3" d="M28.343,1.97a3.423,3.423,0,0,1,3.6,3.21V8.389H24.746V5.18a3.423,3.423,0,0,1,3.6-3.209m0-1.07A4.561,4.561,0,0,0,23.548,5.18v4.28h9.59V5.18A4.561,4.561,0,0,0,28.343.9" transform="translate(-12.533 -0.527)" fill="#fd6660"></path>
    <path id="path3_line" data-name="path3_line" d="M33.338,9.661h-9.99V5.18A4.767,4.767,0,0,1,28.343.7v0a4.766,4.766,0,0,1,5,4.48Zm-9.59-.4h9.19V5.18a4.367,4.367,0,0,0-4.6-4.08v0A4.368,4.368,0,0,0,23.748,5.18Zm8.391-.671H24.546V5.18a3.628,3.628,0,0,1,3.8-3.409h0a3.624,3.624,0,0,1,3.8,3.408Zm-7.193-.4h6.793V5.18a3.226,3.226,0,0,0-3.4-3.009,3.229,3.229,0,0,0-3.4,3.009Z" transform="translate(-12.533 -0.527)" fill="#fd6660"></path>
    <path id="path4" data-name="path4" d="M28.343,1.97a3.423,3.423,0,0,1,3.6,3.21V8.389H24.746V5.18a3.423,3.423,0,0,1,3.6-3.209m0-1.07A4.561,4.561,0,0,0,23.548,5.18v4.28h9.59V5.18A4.561,4.561,0,0,0,28.343.9" transform="translate(-12.533 9.818)" fill="#fd6660"></path>
    <path id="path4_line" data-name="path4_line" d="M33.338,9.661h-9.99V5.18A4.767,4.767,0,0,1,28.343.7v0a4.766,4.766,0,0,1,5,4.48Zm-9.59-.4h9.19V5.18a4.367,4.367,0,0,0-4.6-4.08v0A4.368,4.368,0,0,0,23.748,5.18Zm8.391-.671H24.546V5.18a3.628,3.628,0,0,1,3.8-3.409h0a3.624,3.624,0,0,1,3.8,3.408Zm-7.193-.4h6.793V5.18a3.226,3.226,0,0,0-3.4-3.009,3.229,3.229,0,0,0-3.4,3.009Z" transform="translate(-12.533 9.818)" fill="#fd6660"></path>
</g>
</svg>