<svg xmlns="http://www.w3.org/2000/svg" width="4.458" height="7" viewBox="0 0 4.458 7">
  <path id="_36f6d4cf6d328c061a44323a197f1fd2" data-name="36f6d4cf6d328c061a44323a197f1fd2" d="M7,2.229a.306.306,0,0,1-.292.319H1L2.248,3.915a.34.34,0,0,1,0,.45.275.275,0,0,1-.412,0L.085,2.454A.331.331,0,0,1,0,2.231H0a.335.335,0,0,1,.023-.122A.319.319,0,0,1,.086,2L1.836.093a.275.275,0,0,1,.412,0,.34.34,0,0,1,0,.45L1,1.911H6.708A.306.306,0,0,1,7,2.229Z" transform="translate(4.458) rotate(90)" fill="#959595"/>
</svg>
