<svg xmlns="http://www.w3.org/2000/svg" width="4.458" height="7" viewBox="0 0 4.458 7">
  <path id="_36f6d4cf6d328c061a44323a197f1fd2" data-name="36f6d4cf6d328c061a44323a197f1fd2" d="M7,2.229a.306.306,0,0,0-.292-.318H1L2.248.544a.339.339,0,0,0,0-.45.275.275,0,0,0-.412,0L.085,2A.331.331,0,0,0,0,2.228H0a.335.335,0,0,0,.023.122.319.319,0,0,0,.063.1l1.75,1.911a.275.275,0,0,0,.412,0,.34.34,0,0,0,0-.45L1,2.548H6.708A.306.306,0,0,0,7,2.229Z" transform="translate(0 7) rotate(-90)" fill="#1F1F1F"/>
</svg>