<svg xmlns="http://www.w3.org/2000/svg" width="40" height="30" viewBox="0 0 40 30">
  <path id="_2f063a8dc25f2ec13d7e4f32819acb5d" data-name="2f063a8dc25f2ec13d7e4f32819acb5d" d="M34.879,11.908A14.2,14.2,0,0,0,20.068,4.143,13.587,13.587,0,0,0,8.134,15.454a7.555,7.555,0,0,0-6.086,8.188,7.846,7.846,0,0,0,7.968,6.618,1.88,1.88,0,1,0,0-3.753,3.884,3.884,0,0,1-4-3.753,3.884,3.884,0,0,1,4-3.753,1.942,1.942,0,0,0,2-1.877,9.586,9.586,0,0,1,8.375-9.236A10.093,10.093,0,0,1,31.5,14.1a1.969,1.969,0,0,0,1.561,1.257,5.758,5.758,0,0,1,4.885,5.3,5.682,5.682,0,0,1-4.4,5.658A1.873,1.873,0,0,0,32.1,28.609a2.02,2.02,0,0,0,2.442,1.351,9.521,9.521,0,0,0,7.451-8.905,9.466,9.466,0,0,0-7.11-9.147ZM23.449,15.792a2.023,2.023,0,0,0-.661-.394,2.126,2.126,0,0,0-1.521,0,2.023,2.023,0,0,0-.661.394L14.6,21.422a1.8,1.8,0,0,0,0,2.665,2.106,2.106,0,0,0,2.843,0l2.582-2.439v10.49a2.006,2.006,0,0,0,4,0V21.647l2.582,2.439a2.1,2.1,0,0,0,2.843,0,1.795,1.795,0,0,0,0-2.665Z" transform="translate(-1.991 -4.013)" fill="#cecece"/>
</svg>
